<?xml version="1.0" standalone="no"?>
<!DOCTYPE svg PUBLIC "-//W3C//DTD SVG 20010904//EN"
 "http://www.w3.org/TR/2001/REC-SVG-20010904/DTD/svg10.dtd">
<svg version="1.0" xmlns="http://www.w3.org/2000/svg"
 width="241.000000pt" height="241.000000pt" viewBox="0 0 241.000000 241.000000"
 preserveAspectRatio="xMidYMid meet">
<metadata>
Created by potrace 1.14, written by Peter Selinger 2001-2017
</metadata>
<g transform="translate(0.000000,241.000000) scale(0.100000,-0.100000)"
fill="#000000" stroke="none">
<path d="M1127 2100 c-347 -59 -628 -310 -733 -655 -25 -82 -27 -105 -27 -245
0 -126 4 -169 21 -231 37 -136 111 -274 206 -384 l35 -40 132 132 132 132 -44
48 c-213 228 -314 589 -245 873 l14 55 1 -41 c6 -235 142 -534 336 -742 l63
-67 259 259 258 259 -69 64 c-208 193 -510 330 -740 334 l-51 1 65 15 c81 20
293 22 375 5 195 -42 375 -133 502 -255 l42 -40 132 131 131 131 -38 36 c-60
56 -179 131 -263 166 -144 60 -345 84 -494 59z"/>
<path d="M1337 1132 l-67 -67 290 -290 290 -290 67 68 68 67 -290 290 -290
290 -68 -68z"/>
</g>
</svg>
