<?xml version="1.0" standalone="no"?>
<!DOCTYPE svg PUBLIC "-//W3C//DTD SVG 20010904//EN"
 "http://www.w3.org/TR/2001/REC-SVG-20010904/DTD/svg10.dtd">
<svg version="1.0" xmlns="http://www.w3.org/2000/svg"
 width="512.000000pt" height="512.000000pt" viewBox="0 0 512.000000 512.000000"
 preserveAspectRatio="xMidYMid meet">
<metadata>
Created by potrace 1.14, written by Peter Selinger 2001-2017
</metadata>
<g transform="translate(0.000000,512.000000) scale(0.100000,-0.100000)"
fill="#000000" stroke="none">
<path d="M2512 4873 c-53 -26 -66 -55 -69 -152 -1 -47 -2 -96 -2 -107 -1 -23
1 -22 -161 -40 -25 -3 -56 -7 -70 -9 -14 -3 -41 -7 -60 -10 -74 -12 -199 -45
-304 -80 -553 -185 -1016 -581 -1286 -1098 -49 -95 -118 -252 -135 -307 -1 -3
-11 -34 -22 -70 -27 -83 -70 -278 -78 -350 -3 -30 -8 -66 -10 -80 -12 -64 -14
-252 -3 -273 16 -32 39 -46 71 -47 42 0 62 15 104 77 49 75 137 161 215 212
66 43 191 96 249 106 19 3 47 8 62 11 36 8 163 7 202 0 109 -21 154 -35 230
-73 128 -63 258 -181 311 -279 43 -79 116 -74 172 11 76 115 179 208 294 266
32 16 60 29 63 29 3 0 5 -413 5 -918 0 -910 0 -918 -20 -940 -27 -29 -80 -29
-106 -1 -16 18 -19 40 -22 157 -3 111 -7 145 -24 184 -34 80 -111 135 -208
150 -43 6 -121 -15 -161 -44 -54 -39 -64 -51 -91 -108 -18 -39 -21 -65 -21
-185 -1 -167 6 -225 35 -302 126 -340 528 -483 841 -300 62 37 156 131 195
195 18 29 44 88 59 130 l27 77 1 957 c0 526 3 959 5 962 8 7 116 -42 173 -78
81 -52 154 -123 213 -207 30 -42 61 -80 70 -83 39 -15 75 -6 105 26 16 18 29
36 29 40 0 4 10 20 23 35 123 147 224 219 376 267 235 74 453 41 663 -100 76
-52 134 -111 197 -202 50 -71 86 -89 133 -65 46 23 51 44 44 187 -4 72 -8 142
-10 156 -2 14 -7 45 -11 70 -5 37 -22 124 -40 202 -15 65 -53 189 -86 274
-185 479 -544 895 -994 1152 -251 144 -562 246 -841 278 -38 4 -73 8 -79 9 -5
1 -25 3 -42 3 l-33 2 0 103 c0 115 -15 153 -69 182 -38 19 -67 19 -109 -2z"/>
</g>
</svg>
